<?xml version="1.0" encoding="UTF-8"?>
<!DOCTYPE svg PUBLIC "-//W3C//DTD SVG 1.1//EN" "http://www.w3.org/Graphics/SVG/1.1/DTD/svg11.dtd">
<svg xmlns="http://www.w3.org/2000/svg" version="1.1" width="134px" height="134px" style="shape-rendering:geometricPrecision; text-rendering:geometricPrecision; image-rendering:optimizeQuality; fill-rule:evenodd; clip-rule:evenodd" xmlns:xlink="http://www.w3.org/1999/xlink">
<g><path style="opacity:0.968" fill="#000000" d="M 56.5,-0.5 C 63.1667,-0.5 69.8333,-0.5 76.5,-0.5C 107.833,6.16667 126.833,25.1667 133.5,56.5C 133.5,63.1667 133.5,69.8333 133.5,76.5C 126.833,107.833 107.833,126.833 76.5,133.5C 69.8333,133.5 63.1667,133.5 56.5,133.5C 25.1667,126.833 6.16667,107.833 -0.5,76.5C -0.5,69.8333 -0.5,63.1667 -0.5,56.5C 6.16667,25.1667 25.1667,6.16667 56.5,-0.5 Z M 98.5,32.5 C 99.3764,32.3691 100.043,32.7025 100.5,33.5C 93.9025,48.7925 87.4025,64.1258 81,79.5C 65.4261,86.9736 49.5927,93.9736 33.5,100.5C 38.9033,84.8377 45.0699,69.1711 52,53.5C 67.4242,46.1979 82.9242,39.1979 98.5,32.5 Z"/></g>
<g><path style="opacity:0.887" fill="#000000" d="M 63.5,55.5 C 73.3186,55.1505 77.8186,59.8172 77,69.5C 74.747,75.9258 70.247,78.4258 63.5,77C 56.0639,73.7065 53.8972,68.2065 57,60.5C 58.8049,58.1743 60.9716,56.5077 63.5,55.5 Z"/></g>
</svg>
